<svg width="60" height="236" version="1.1" xmlns="http://www.w3.org/2000/svg">
  <defs>
    <clipPath id="clipTransForm">
      <path
        d="M 38,84 46,92 v 48 l -6,6 v 86 l 2,4 v 8 H 18 v -8 l 2,-4 v -86 l -6,-6 V 92 l 8,-8 z"
        />
    </clipPath>
  </defs>

  <!-- Bandes du drapeau trans -->
  <g clip-path="url(#clipTransForm)">
    <rect x="0" y="84" width="60" height="20" fill="#5BCEFA" />
    <rect x="0" y="104" width="60" height="20" fill="#F5A9B8" />
    <rect x="0" y="124" width="60" height="20" fill="#FFFFFF" />
    <rect x="0" y="144" width="60" height="20" fill="#F5A9B8" />
    <rect x="0" y="164" width="60" height="20" fill="#5BCEFA" />
  </g>

  <!-- Contour noir -->
  <path
    d="M 38,84 46,92 v 48 l -6,6 v 86 l 2,4 v 8 H 18 v -8 l 2,-4 v -86 l -6,-6 V 92 l 8,-8 z"
    fill="none"
    stroke="#000000"
    stroke-width="2" />
</svg>
