<svg width="128" height="128" xmlns="http://www.w3.org/2000/svg">
 <g>
  <title>Layer 1</title>
  <circle cx="63.41209" cy="63.90026" r="64" fill="#f0f0f0" id="svg_1"/>
  <path d="m88.098,50.087l-16.066,0l-8.032,-13.913l-8.032,13.913l-16.066,0l8.033,13.913l-8.033,13.913l16.066,0l8.032,13.913l8.032,-13.913l16.066,0l-8.033,-13.913l8.033,-13.913zm-14.23,13.913l-4.933,8.547l-9.869,0l-4.935,-8.547l4.935,-8.547l9.868,0l4.934,8.547zm-9.868,-17.094l1.837,3.18l-3.673,0l1.836,-3.18zm-14.803,8.547l3.672,0l-1.836,3.181l-1.836,-3.181zm0,17.094l1.836,-3.181l1.837,3.181l-3.673,0zm14.803,8.547l-1.836,-3.181l3.672,0l-1.836,3.181zm14.803,-8.547l-3.672,0l1.836,-3.181l1.836,3.181zm-3.672,-17.094l3.672,0l-1.836,3.181l-1.836,-3.181zm28.709,-41.54l-79.68,0a64.323,64.323 0 0 0 -14.766,16.696l109.213,0a64.336,64.336 0 0 0 -14.767,-16.696zm-79.68,100.174l79.679,0a64.323,64.323 0 0 0 14.767,-16.696l-109.212,0a64.336,64.336 0 0 0 14.767,16.696l-0.001,0z" fill="#0052b4" id="svg_2"/>
  <line stroke-linecap="undefined" stroke-linejoin="undefined" id="svg_3" y2="133.68492" x2="135.85027" y1="4.55127" x1="8.68512" stroke="#000" fill="none"/>
  <line stroke-dasharray="—" transform="rotate(6.96366, 59.3061, 57.8093)" stroke-width="20" stroke-linecap="undefined" stroke-linejoin="undefined" id="svg_4" y2="-4.59218" x2="-31.46212" y1="120.2107" x1="150.07437" stroke="#f44336" fill="none"/>
  <line stroke-dasharray="—" transform="rotate(105.633, 73.5919, 57.197)" stroke-width="20" stroke-linecap="undefined" stroke-linejoin="undefined" id="svg_5" y2="-5.20443" x2="-17.1764" y1="119.59845" x1="164.36009" stroke="#f44336" fill="none"/>
 </g>

</svg>