<svg width="60" height="236" version="1.1" xmlns="http://www.w3.org/2000/svg">
  <defs>
    <clipPath id="clipTransForm">
      <path
        d="M 38,84 46,92 v 48 l -6,6 v 86 l 2,4 v 8 H 18 v -8 l 2,-4 v -86 l -6,-6 V 92 l 8,-8 z"
        />
    </clipPath>
  </defs>

  <!-- Bandes du drapeau trans (étendues sur toute la forme) -->
  <g clip-path="url(#clipTransForm)">
    <rect x="0" y="84.0" width="60" height="26.8" fill="#5BCEFA" />  <!-- Bleu -->
    <rect x="0" y="110.8" width="60" height="26.8" fill="#F5A9B8" /> <!-- Rose -->
    <rect x="0" y="137.6" width="60" height="26.8" fill="#FFFFFF" /> <!-- Blanc -->
    <rect x="0" y="164.4" width="60" height="26.8" fill="#F5A9B8" /> <!-- Rose -->
    <rect x="0" y="191.2" width="60" height="26.8" fill="#5BCEFA" />  <!-- Bleu -->
  </g>

  <!-- Contour noir -->
  <path
    d="M 38,84 46,92 v 48 l -6,6 v 86 l 2,4 v 8 H 18 v -8 l 2,-4 v -86 l -6,-6 V 92 l 8,-8 z"
    fill="none"
    stroke="#000000"
    stroke-width="2" />
</svg>
