<svg width="60" height="236" version="1.1" xmlns="http://www.w3.org/2000/svg">
  <defs>
    <clipPath id="clipLGBTForm">
      <path
        d="M 38,84 46,92 v 48 l -6,6 v 86 l 2,4 v 8 H 18 v -8 l 2,-4 v -86 l -6,-6 V 92 l 8,-8 z"
        />
    </clipPath>
  </defs>

  <!-- Bandes du drapeau LGBT -->
  <g clip-path="url(#clipLGBTForm)">
    <rect x="0" y="84.0" width="60" height="22.33" fill="#E40303" />  <!-- Rouge -->
    <rect x="0" y="106.33" width="60" height="22.33" fill="#FF8C00" />  <!-- Orange -->
    <rect x="0" y="128.66" width="60" height="22.33" fill="#FFED00" /> <!-- Jaune -->
    <rect x="0" y="150.99" width="60" height="22.33" fill="#008026" /> <!-- Vert -->
    <rect x="0" y="173.32" width="60" height="22.33" fill="#004DFF" /> <!-- Bleu -->
    <rect x="0" y="195.65" width="60" height="22.33" fill="#750787" /> <!-- Violet -->
  </g>

  <!-- Contour noir -->
  <path
    d="M 38,84 46,92 v 48 l -6,6 v 86 l 2,4 v 8 H 18 v -8 l 2,-4 v -86 l -6,-6 V 92 l 8,-8 z"
    fill="none"
    stroke="#000000"
    stroke-width="2" />
</svg>
